<?xml version="1.0" encoding="UTF-8"?>
<svg id="Layer_1" xmlns="http://www.w3.org/2000/svg" version="1.1" viewBox="0 0 680 680">
  <!-- Generator: Adobe Illustrator 29.8.3, SVG Export Plug-In . SVG Version: 2.1.1 Build 3)  -->
  <path d="M388.018,349.341c44.875,5.971,86.669,20.608,127.884,40.831.385-3.852.963-6.356.963-9.052,0-27.541-.192-55.276.192-82.817.192-6.934-2.311-9.438-8.859-10.593-67.216-12.711-135.011-20.03-203.575-17.334-42.949,1.733-85.513,7.319-127.114,19.26v100.728c41.986-20.993,84.743-36.786,131.544-41.408,18.104,104.58,21.956,208.005-1.348,311.237-62.594-3.467-153.5-41.601-213.205-89.558,2.119-6.163,4.43-12.711,6.741-19.26,13.482-38.519,26.964-77.231,33.897-117.869,7.511-44.49,3.467-88.209-9.438-130.966-9.052-30.623-20.03-60.668-29.66-91.098-1.156-3.852-.963-10.015,1.348-12.711,22.534-26.001,45.453-51.616,68.372-76.846,1.541-1.733,5.2-3.274,7.319-2.504,36.016,10.978,71.839,22.341,106.699,33.512-12.519,13.867-25.23,27.927-38.327,42.371,67.794,21.186,135.974,42.371,204.153,63.557.385-.771.771-1.348,1.156-2.119-35.631-27.156-71.261-54.313-108.432-82.624,10.978-9.63,21.764-19.067,33.319-29.468-39.29-30.431-76.461-59.32-116.521-90.328,28.504-11.941,54.89-23.112,81.276-33.897,2.504-.963,6.356.385,9.244,1.541,78.002,29.082,147.337,71.839,204.153,133.277,12.326,13.289,22.919,28.312,33.704,43.142,2.311,3.274,2.889,9.052,1.926,12.904-9.244,37.556-20.415,74.535-28.504,112.284-12.134,56.624-6.934,112.862,8.089,168.33,6.356,23.689,13.097,47.379,19.838,71.068,1.733,5.586.771,8.859-4.237,12.711-52.194,38.904-109.202,67.794-173.53,80.698-5.586,1.156-11.171,1.926-16.756,2.889-18.297-48.727-19.838-246.139-2.311-309.889h0Z"/>
</svg>