<?xml version="1.0" encoding="UTF-8"?>
<svg id="Layer_1" xmlns="http://www.w3.org/2000/svg" version="1.1" viewBox="0 0 400 400">
  <!-- Generator: Adobe Illustrator 29.8.3, SVG Export Plug-In . SVG Version: 2.1.1 Build 3)  -->
  <path d="M174.743,71.77l-17.79,45.313,63.789,87.2,91.006-6.518-2.948-81.385-19.005-3.668c1.153-3.569-2.575-14.684-.097-16.535l56.939.692,7.619,103.903-111.015,57.613-101.892-57.732c-1.78-1.14-1.697-3.107-2.14-4.86-7.461-29.53-10.012-61.923-17.375-91.679l.054-3.679,52.854-28.666Z"/>
  <path d="M273.655,47.846l2.079,62.913-49.989-8.003-1.873,55.374,49.865,13.626-1.996-29.003-13.002,1.002v10.001s-20.897-5.092-20.897-5.092l.899-29.909,57.009,8,2.054,57.39c-.244.901-4.574,1.527-5.569,1.607-21.253,1.707-42.594,2.607-63.792,4.85l-55.691-75.391,29.937-76.971,70.966,9.607Z"/>
  <path d="M45.744,381.76l14.763-11.462c-6.39-15.684-3.539-31.104,7.725-43.55.837-.925,5.449-6.07,6.512-4.978-4.367,10.728.541,26.75,13.972,25.504,24.576-22.172,47.317-46.232,67.901-72.154,2.542-4.031-1.873-8.611-2.634-13.099-.506-2.984-.327-6.15-.123-9.149,6.995.085,21.782-13.425,26.532-13.901,5.691-.57,3.387,4.453,3.562,6.284,1.264,13.27,2.953,25.337,8.791,37.496l-18.792,2.228-19.054,23.426c3.403,10.977,17.136,9.353,25.845,6.365-6.161,12.641-21.37,22.063-35.5,22.069-4.422.002-11.683-3.318-15.481-1.563-2.873,1.328-15.196,15.532-19.005,18.998s-31.345,27.486-33.514,27.486h-31.5Z"/>
  <path d="M166.741,231.748c-32.348,18.896-68.442,27.202-105.993,25.007-.91-.781,7.546-11.514,8.599-12.891,14.84-19.407,32.971-37.614,55.907-47.094l3.495,12.486,37.993,22.493Z"/>
  <path d="M267.73,260.761c7.064,20.013,8.179,46.127,2.042,66.554-.285.949.543,1.983-1.475,1.401-6.536-1.883-26.569-14.662-32.869-19.141-20.889-14.853-36.178-34.19-37.675-60.815l44.477,24.959,25.5-12.958Z"/>
  <path d="M350.737,272.757c-22.885-1.588-44.487-6.455-63.366-19.912l-.624-2.069,36.291-17.911c11.844,10.711,23.023,24.494,27.699,39.892Z"/>
  <path d="M120.737,173.756c-18.06-5.101-31.225-21.824-40.993-36.986l34.067-.577,6.927,37.563Z"/>
</svg>