<?xml version="1.0" encoding="utf-8"?>
<!-- Generator: Adobe Illustrator 29.8.3, SVG Export Plug-In . SVG Version: 9.03 Build 0)  -->
<svg version="1.0" id="Layer_1" xmlns="http://www.w3.org/2000/svg" xmlns:xlink="http://www.w3.org/1999/xlink" x="0px" y="0px"
	 viewBox="0 0 600 600" style="enable-background:new 0 0 600 600;" xml:space="preserve">
<g transform="translate(0.000000,1024.000000) scale(0.100000,-0.100000)">
	<path d="M2824.865,10064.756c-224-59-408-244-469-473c-11-41-17-102-17-182c0-108,3-129,30-206c56-159,183-311,313-375l60-29v-327
		l1-328h265h265v329v329l68,38c96,53,210,172,255,267c57,119,69,165,75,274c10,218-55,374-222,530c-83,78-202,143-294,162
		C3070.865,10090.756,2908.865,10086.756,2824.865,10064.756z M3146.865,9730.756c60-29,142-112,170-171c42-88,37-222-11-304
		c-36-62-99-122-158-151c-41-20-66-24-140-24c-83-1-96,2-157,32c-75,37-123,88-160,168c-34,73-32,208,3,284c27,57,102,135,157,164
		C2935.865,9772.756,3059.865,9773.756,3146.865,9730.756z"/>
	<path d="M1833.865,7934.756c-93-22-161-111-161-212c0-94,37-160,120-211l35-22l1135-3c799-2,1150,0,1186,8c103,22,184,119,184,219
		c0,97-76,197-166,220C4115.865,7946.756,1888.865,7947.756,1833.865,7934.756z"/>
	<path d="M563.865,7295.756c-73-393-36-832,101-1206c43-117,127-305,176-394l30-54l16,57c9,31,32,95,51,142c103,256,343,472,615,555
		l74,22l-50,18c-223,75-474,249-650,450c-128,146-188,232-269,390l-71,139L563.865,7295.756z"/>
	<path d="M5373.865,7327.756c-83-180-195-334-364-503c-122-123-218-202-312-260c-74-45-204-108-268-129c-20-7-37-16-37-20
		s23-13,51-19c125-29,300-133,411-244c100-100,222-308,268-457l17-55l67,138c36,76,66,140,66,143s15,40,34,83c36,81,107,314,125,410
		c39,201,52,514,31,705c-11,97-39,253-49,271C5410.865,7396.756,5391.865,7368.756,5373.865,7327.756z"/>
	<path d="M2745.865,7192.756c12-216,120-410,354-641c49-48,107-101,131-118l42-31v441v441h-266h-267L2745.865,7192.756z"/>
	<path d="M2528.865,7034.756c-24-109-24-307-2-405c51-218,212-417,631-782c93-82,207-191,253-243c77-88,163-205,177-243
		c5-11-14-29-70-67c-42-28-77-50-78-48c-16,28-82,117-124,165c-92,107-173,185-338,328c-88,76-204,181-257,234c-54,52-99,93-100,90
		c-2-2-16-30-31-61c-38-75-128-160-214-201c-67-32-70-32-213-32c-137,1-150,2-239,33c-176,61-352,157-476,261c-27,22-52,40-55,39
		c-16-8-191-202-219-241l-32-47l88-86c193-191,474-395,763-556c504-280,770-479,952-710c35-44,64-73,67-66c8,25,116,154,198,235
		c149,147,280,238,718,498c525,311,564,339,879,627l58,54l-60,79c-33,44-92,111-131,150l-71,69l-27-25c-47-42-134-105-216-154
		c-281-170-577-212-765-110c-64,34-143,115-180,183c-24,45-52,70-178,164c-197,148-415,364-507,503c-85,129-121,208-152,331
		c-14,54-27,103-28,108C2547.865,7114.756,2538.865,7080.756,2528.865,7034.756z"/>
</g>
</svg>
