<?xml version="1.0" encoding="UTF-8"?>
<svg id="Layer_1" xmlns="http://www.w3.org/2000/svg" version="1.1" viewBox="0 0 700 700">
  <!-- Generator: Adobe Illustrator 30.0.0, SVG Export Plug-In . SVG Version: 2.1.1 Build 123)  -->
  <path d="M366.4,670c-27.2,0-54.5,0-81.7,0-4.2,0-8.5-.3-12.4-1.6-8.8-2.8-12.9-10.2-13-21.6-.2-44.9-.5-89.9-.5-134.8,0-16.7-4.8-31.7-14.2-45.4-35.8-51.9-71.6-103.8-107.4-155.7-10.3-14.9-10.2-26.4-.1-41.6,25.4-38.3,50.9-76.7,76.3-115,9.7-14.6,20.2-18.2,37-12.4,42,14.5,84,28.9,125.8,43.8,7.2,2.6,14.1,6.5,20.4,10.8,7.9,5.4,11.3,13.5,10.3,23.1-1.3,12.3-6,23.1-15.2,31.6-9.2,8.5-20.6,10-31.7,6.6-22-6.6-43.9-13.6-65.1-22.3-21.5-8.8-33.8,3.8-38.9,22-2.3,8.2,2.8,16.5,11.8,20.8,13.8,6.6,27.7,12.9,41.5,19.3,16.5,7.7,28.3,19.5,34.7,37.1,11.7,32.4,24.2,64.5,36.4,96.8.5,1.4,1,2.9,1.7,4.3,2.7,5.5,8,7.9,13.2,5.8,4.9-1.9,6.9-6.6,4.8-12.8-6.2-18.7-12.6-37.3-18.9-55.9-3-8.8-6-17.5-8.9-26.4-1.5-4.7-5-10.8.3-13.9,3.1-1.8,9.4,0,13.3,2,23.6,12.1,47,24.7,70.4,37.1,17,9,27.9,7.5,41.7-6.2,8.3-8.3,16.6-16.6,25-24.8,3.4-3.3,7.4-9,12-5.7,3.1,2.2,4.2,8.8,4.1,13.4-.9,39.7-12.2,76.7-32,111-6.3,10.8-14.1,20.8-21.6,30.8-7.3,9.7-11.8,20.1-11.8,32.4,0,40.7,0,81.5,0,122.2,0,18-7,25-24.9,25-27.4,0-54.9,0-82.3,0h0Z"/>
  <path d="M417.3,314.9c-16.4,0-30.8-14.8-27.8-28.5.7-3.3,2.4-6.7,4.3-9.6,22.8-34.5,45.7-68.9,68.7-103.3,8.8-13.1,19.1-14.6,31.1-4.5,6.1,5.1,12.2,10.2,18.1,15.6,9.4,8.7,10.2,20.4,2,30.2-25.6,30.5-51.4,60.8-77.1,91.2-5,6-11.5,8.8-19.3,8.7h0Z"/>
  <path d="M316.2,139.2c-2.3-.7-6-1.4-9.4-2.7-14.6-5.7-29.2-11.4-43.7-17.3-13.4-5.4-16.3-14.8-8.2-26.8,11.6-17.2,23.3-34.4,35.1-51.5,8.2-11.8,19.2-14.1,31.6-6.6,13.7,8.4,27.4,16.9,41.1,25.5,11.4,7.2,13.6,17.9,5.8,28.8-9.4,13.1-19,26.1-28.5,39.1-5.5,7.5-13.2,10.7-23.7,11.4h0Z"/>
  <path d="M474.8,352.9c-12.8-.8-20.6-5.2-25.2-14.2-4.4-8.6-2.5-16.6,3.3-24.1,21-26.8,42-53.6,63-80.3,9-11.4,19.2-11.8,29-1.3,6.5,6.9,13,13.9,19.3,21,8.3,9.5,7.7,20.5-1.8,28.7-24.8,21.4-49.6,42.7-74.7,63.7-4.2,3.5-9.9,5.1-12.9,6.5h0Z"/>
  <path d="M418.9,180.4c-1.2-.2-3.1-.2-4.7-.8-15.9-5.9-31.9-11.6-47.6-18.1-8.1-3.3-10.3-11.5-5.3-18.7,11.3-16.3,22.9-32.5,34.8-48.4,5.8-7.8,15.8-9.7,24.4-4.9,13.9,7.8,27.5,15.8,41,24.2,8.8,5.5,10.4,14.5,4.2,22.8-8.7,11.7-17.6,23.2-26.6,34.7-5,6.4-11.9,8.9-20.3,9.2h0Z"/>
</svg>