<!-- Generated by IcoMoon.io -->
<svg version="1.1" xmlns="http://www.w3.org/2000/svg" width="768" height="768" viewBox="0 0 768 768">
<g id="icomoon-ignore">
</g>
<path fill="#000" d="M160 64c-26.496 0-50.56 10.784-67.872 28.128s-28.128 41.376-28.128 67.872v448c0 26.496 10.784 50.56 28.128 67.872s41.376 28.128 67.872 28.128h448c26.496 0 50.56-10.784 67.872-28.128s28.128-41.376 28.128-67.872v-448c0-26.496-10.784-50.56-28.128-67.872s-41.376-28.128-67.872-28.128zM640 256h-512v-96c0-8.832 3.552-16.8 9.376-22.624s13.792-9.376 22.624-9.376h448c8.832 0 16.8 3.552 22.624 9.376s9.376 13.792 9.376 22.624zM256 320v320h-96c-8.832 0-16.8-3.552-22.624-9.376s-9.376-13.792-9.376-22.624v-288zM320 640v-320h320v288c0 8.832-3.552 16.8-9.376 22.624s-13.792 9.376-22.624 9.376z"></path>
</svg>
