<?xml version="1.0" encoding="UTF-8"?>
<svg id="Layer_1" xmlns="http://www.w3.org/2000/svg" version="1.1" viewBox="0 0 760 760">
  <!-- Generator: Adobe Illustrator 29.8.3, SVG Export Plug-In . SVG Version: 2.1.1 Build 3)  -->
  <path d="M437.112,68.066c77.783,51.987,101.975,149.744,55.424,226.845-32.053,53.09-56.443,90.759-45.886,155.245,10.634,64.96,62.431,85.171,103.281,24.156,26.339-39.342,37.701-97.3,25.313-142.065l-5.233-15.255c2.403,2.389,4.536,5.029,6.533,7.704,40.21,53.87,80.351,130.188,70.698,197.209-15.188,105.454-118.886,203.713-237.185,209.093-35.148,1.599-81.485-1.348-115.795-8.45-6.906-1.43-15.128-6.306-21.738-4.32.986-4.075-5.41-3.673-8.996-5.02-56.552-21.238-103.658-68.828-129.191-119.015-54.724-107.564-4.959-258.803,76.252-344.709,8.325-8.806,18.553-16.617,25.945-26.189l1.987.437c2.424,42.97,38.979,63.55,78.006,33.672,64.937-49.712,66.787-152.72,14.96-211.066-4.526-5.096-11.281-10.05-15.478-15.032-.769-.912-1.94-1.153-1.489-2.731,30.319,1.183,60.669,8.444,87.874,20.576,11.327,5.051,24.563,12.125,34.718,18.912Z"/>
</svg>