<?xml version="1.0" encoding="UTF-8"?>
<svg id="Layer_1" xmlns="http://www.w3.org/2000/svg" version="1.1" viewBox="0 0 1014 1024">
  <!-- Generator: Adobe Illustrator 29.7.1, SVG Export Plug-In . SVG Version: 2.1.1 Build 8)  -->
  <path fill="#000"
    d="M791.1,642.4l86.1-86,77.2,77.2-130.2,130.1,189.7,189.7-70.6,70.6-189.7-189.7-130.2,130.1-77.2-77.2,86.5-86.5-95.2-95.2,158.3-158.4,95.3,95.3h0Z" />
  <path fill="#000"
    d="M9.1,18.1l213.1,57.1.4-1.4,236.1,236.2-158.3,158.3L64.2,232.1l1.4-.4L8.5,18.6s.6-.5.6-.5Z" />
  <path fill="#000"
    d="M222.8,624.3L791.4,55.7l.4,1.4L1005,0l.4.4-57,213.2,1.4.4L381.2,782.6l86.5,86.5-77.2,77.2-130.2-130.2-189.7,189.7L0,935.2l189.7-189.7-130-130.1,77.1-77.2,86,86.1Z" />
</svg>