<!-- Generated by IcoMoon.io -->
<svg version="1.1" xmlns="http://www.w3.org/2000/svg" width="1024" height="1024" viewBox="0 0 1024 1024">
<g id="icomoon-ignore">
</g>
<path fill="#000" d="M720.418 903.097c26.475-11.178 50.891-21.474 75.601-31.476-0.294-1.471-0.294-2.942-0.588-4.413-22.063-8.825-44.419-17.062-66.188-26.769-8.237-3.53-16.473-9.119-22.357-15.591-67.070-74.13-133.847-148.555-200.623-222.98-5.001-5.589-10.296-11.473-16.768-18.238-15.297 30.299-25.004 60.305-30.888 91.486-8.237 45.008-6.472 88.839 15.885 130.022 22.357 40.889 58.54 63.54 101.194 77.366 7.648 2.648 15.885 4.707 25.004 7.354-28.534 37.065-61.187 67.365-100.606 90.604-80.896 47.949-167.676 52.95-257.103 31.476-81.485-19.709-154.438-58.54-222.98-105.901-1.471-0.883-2.648-2.648-2.942-2.942 18.533 1.177 37.359 4.118 56.186 3.236 73.248-3.824 107.077-64.423 72.365-128.846-7.060-12.943-15.591-24.71-23.239-36.477 16.179 3.236 32.359 8.237 49.126 9.413 37.948 2.648 68.835-11.473 87.074-45.596 18.533-34.124 13.532-67.953-7.648-100.017-1.765-2.942-3.53-5.589-4.707-7.060 21.18 2.059 42.949 6.178 64.717 5.589 71.483-2.353 94.428-64.129 89.133-113.843-0.588-5.001-5.295-10.296-9.119-14.414-33.829-37.948-67.953-75.895-102.076-113.843-2.648-2.942-5.001-5.883-9.708-11.767 24.122-23.239 47.655-46.479 72.66-70.6 16.768 15.003 32.359 28.828 47.949 42.949 23.828 21.18 47.067 42.949 71.189 63.835 6.178 5.295 15.003 9.119 22.945 10.002 65.011 7.354 112.961-38.536 108.548-103.547-1.177-16.473-4.707-32.653-7.354-50.597 40.007 27.652 81.485 36.183 120.609 3.236 41.478-35.006 37.359-80.602 20.298-127.081 16.473 9.708 31.182 20.592 47.655 27.652 58.54 25.593 109.725-4.118 116.785-67.659 1.177-11.178 1.471-22.357 0.588-33.535s-3.236-22.063-5.589-35.889c6.766 10.002 12.649 17.944 18.238 26.475 47.067 72.954 84.426 150.32 98.546 236.806 20.003 122.668-15.297 226.215-108.842 309.465-5.589 4.707-11.178 9.413-17.944 15.591-4.118-12.943-7.060-24.71-11.473-35.889-32.947-84.426-100.017-122.374-190.033-108.548-35.594 5.589-69.424 16.473-107.666 35.006 6.472 3.824 11.473 5.295 15.003 8.531 78.837 70.6 157.38 141.495 235.923 212.684 5.295 4.707 9.413 11.178 12.061 17.65 9.708 22.945 18.827 46.184 27.946 69.424 1.471 0.588 2.942 0.883 4.413 1.471 11.178-25.887 22.063-51.774 33.535-78.249 38.83 100.017 77.366 199.74 117.667 303.582-101.488-41.184-201.505-80.014-302.405-119.138z"></path>
<path fill="#000" d="M389.479 68.835c27.063 27.063 50.303 50.597 74.719 75.013-130.022 82.661-235.335 190.915-318.584 321.232-24.122-25.298-47.655-49.714-71.777-75.013 1.177-1.177 4.413-5.001 8.237-8.531 35.3-35.3 70.306-70.895 106.195-105.901 8.237-7.943 8.237-13.826 3.53-23.533-38.536-77.66-97.37-135.317-172.677-177.089-6.766-3.824-13.532-7.648-19.121-10.59 21.474-21.474 42.654-42.654 64.129-64.423 11.473 18.238 22.651 37.948 35.594 56.774 40.007 58.54 89.721 105.901 154.733 135.906 8.531 3.824 13.532 3.236 20.003-3.53 35.3-35.889 71.189-71.483 106.783-107.371 3.824-3.53 5.883-8.825 8.237-12.943z"></path>
</svg>
