<?xml version="1.0" encoding="UTF-8"?>
<svg id="Layer_1" xmlns="http://www.w3.org/2000/svg" version="1.1" viewBox="0 0 768 768.002">
  <!-- Generator: Adobe Illustrator 29.8.3, SVG Export Plug-In . SVG Version: 2.1.1 Build 3)  -->
  <path d="M733.17,244.328v279.34c-.1,13.17-2.51,25.91-7.16,37.85-8.34,21.55-23.78,40.4-45.35,52.87l-244.46,139.7c-11.24,6.43-23.53,10.69-36.21,12.68-22.83,3.52-46.93-.42-68.23-12.72l-244.73-139.84c-11.14-6.53-20.99-14.98-29.02-24.97-14.52-17.98-23.15-40.78-23.18-65.57V244.088c.1-12.92,2.51-25.67,7.15-37.61,8.35-21.54,23.78-40.4,45.36-52.86L331.8,13.908c11.24-6.42,23.53-10.68,36.21-12.67,22.83-3.53,46.93.42,68.23,12.71l244.73,139.84c11.14,6.53,20.99,14.98,29.02,24.97,14.52,17.98,23.15,40.78,23.18,65.57Z"/>
</svg>