<svg xmlns="http://www.w3.org/2000/svg" xmlns:xlink="http://www.w3.org/1999/xlink" version="1.1" width="256" height="256" viewBox="0 0 256 256" xml:space="preserve">
<g style="stroke: none; stroke-width: 0; stroke-dasharray: none; stroke-linecap: butt; stroke-linejoin: miter; stroke-miterlimit: 10; fill: none; fill-rule: nonzero; opacity: 1;" transform="translate(1.4065934065934016 1.4065934065934016) scale(2.81 2.81)">
	<path d="M 30.648 90 h -4.666 c -0.276 0 -0.54 -0.114 -0.729 -0.315 c -0.189 -0.202 -0.287 -0.473 -0.269 -0.748 c 1.473 -23.129 7.78 -37.706 23.516 -52.984 c -11.987 6.803 -23.657 18.781 -25.661 35.247 c -0.051 0.42 -0.361 0.763 -0.774 0.854 c -0.414 0.094 -0.84 -0.086 -1.065 -0.443 c -8.808 -14.02 -8.505 -26.712 0.952 -39.944 c 5.454 -7.272 13.28 -11.279 20.185 -14.815 c 8.346 -4.273 15.554 -7.964 17.098 -16.04 c 0.078 -0.407 0.398 -0.723 0.807 -0.796 c 0.407 -0.073 0.818 0.113 1.032 0.467 c 10.854 17.977 19.798 35.828 10.159 56.542 c -7.694 13.752 -20.459 20.112 -37.994 18.96 c -1.01 4.324 -1.531 8.595 -1.59 13.028 C 31.641 89.561 31.195 90 30.648 90 z" style="stroke: none; stroke-width: 1; stroke-dasharray: none; stroke-linecap: butt; stroke-linejoin: miter; stroke-miterlimit: 10; fill: rgb(0,0,0); fill-rule: nonzero; opacity: 1;" transform=" matrix(1 0 0 1 0 0) " stroke-linecap="round"/>
</g>
</svg>