<?xml version="1.0" encoding="UTF-8"?>
<svg id="Layer_1" xmlns="http://www.w3.org/2000/svg" version="1.1" viewBox="0 0 634 640">
  <!-- Generator: Adobe Illustrator 29.8.3, SVG Export Plug-In . SVG Version: 2.1.1 Build 3)  -->
  <path d="M139.25,401.5l59.563-59.563,98.938,99-59.5,59.5,54.062,54.063-48.25,48.25-81.375-81.313-118.563,118.563L0,595.875l118.562-118.563-81.375-81.313,48.25-48.25,53.813,53.75h0Z"/>
  <path d="M628.375,11.625l-35.688,133.188.875.25-147.625,147.625-98.938-98.938L494.562,46.125l.25.875,133.188-35.688.375.313h0Z"/>
  <path d="M548.188,336.375l48.188,48.25-81.25,81.313,118.563,118.562-44.125,44.125-118.562-118.562-81.375,81.375-48.25-48.25,54.063-54.063L40.065,133.75l.875-.25L5.315.25l.25-.25,133.25,35.688.25-.875,355.375,355.375,53.75-53.813h-.002Z"/>
</svg>