<!-- Generated by IcoMoon.io -->
<svg version="1.1" xmlns="http://www.w3.org/2000/svg" width="640" height="640" viewBox="0 0 640 640">
<g id="icomoon-ignore">
</g>
<path fill="#000" d="M320 40c-54 0-112.933 15.887-159.688 51.641s-80.313 92.645-80.313 168.359c0 65.452 36.207 136.688 40 144.063v15.938c0 35.111 29.333 60 60 60 7.556 0 11.884 2.197 14.844 5.156s5.156 7.288 5.156 14.844c0 30.667 24.889 60 60 60h120c35.111 0 60-29.333 60-60 0-7.556 2.197-11.884 5.156-14.844s7.288-5.156 14.844-5.156c16.444 0 32.084-5.834 43.125-16.875s16.875-26.681 16.875-43.125v-16.016c3.798-7.442 40-79.249 40-147.969 0-74.078-34.88-129.989-82.031-165.078s-105.802-50.938-157.969-50.938zM320 80c43.833 0 95.214 14.136 134.063 43.047s65.938 71.047 65.938 132.969c0 55.667-37.891 135.078-37.891 135.078l-2.109 4.219v24.688c0 7.556-2.197 11.884-5.156 14.844s-7.288 5.156-14.844 5.156c-16.444 0-32.084 5.834-43.125 16.875s-16.875 26.681-16.875 43.125c0 9.333-7.111 20-20 20h-120c-12.889 0-20-10.667-20-20 0-16.444-5.834-32.084-16.875-43.125s-26.681-16.875-43.125-16.875c-9.333 0-20-7.111-20-20v-24.688l-2.109-4.219c0 0-37.891-79.982-37.891-131.094 0-64.286 26.442-107.394 64.688-136.641s89.313-43.359 135.313-43.359zM220 280c-33.137 0-60 26.863-60 60v0c0 33.137 26.863 60 60 60v0c33.137 0 60-26.863 60-60v0c0-33.137-26.863-60-60-60v0zM420 280c-33.137 0-60 26.863-60 60v0c0 33.137 26.863 60 60 60v0c33.137 0 60-26.863 60-60v0c0-33.137-26.863-60-60-60v0zM320 400c-16 4-40 39.984-40 63.984 0 8 8.016 16.016 16.016 16.016 16 0 19.984-12 23.984-20 4 8 7.984 20 23.984 20 8 0 16.016-8.016 16.016-16.016 0-24-24-59.984-40-63.984z"></path>
</svg>
