<?xml version="1.0" encoding="UTF-8"?>
<svg id="Layer_1" xmlns="http://www.w3.org/2000/svg" version="1.1" viewBox="0 0 512 512">
  <!-- Generator: Adobe Illustrator 29.7.1, SVG Export Plug-In . SVG Version: 2.1.1 Build 8)  -->
  <path fill="#000"
    d="M304,480c-114.7,0-207.6-99.9-208-223.3,0-26.5-21.8-48.9-48.4-48.7-26.3.2-47.6,21.6-47.6,48,0,141.4,114.6,256,256,256s249.6-108.4,255.7-244.3c-5.6,118.3-96.5,212.3-207.7,212.3ZM256,0C118.5,0,6.4,108.4.3,244.3,5.9,126,96.8,32,208,32s207.6,99.9,208,223.3c0,26.5,21.8,48.9,48.4,48.7,26.3-.2,47.6-21.6,47.6-48C512,114.6,397.4,0,256,0Z" />
</svg>