<?xml version="1.0" encoding="UTF-8"?>
<svg id="Layer_1" xmlns="http://www.w3.org/2000/svg" version="1.1" viewBox="0 0 800 800">
  <!-- Generator: Adobe Illustrator 29.8.3, SVG Export Plug-In . SVG Version: 2.1.1 Build 3)  -->
  <path d="M218.883,354.368c-11.678,29.501-23.354,58.387-34.827,87.477-8.604,21.511-5.122,41.383,8.399,59.821,11.882,15.979,27.657,27.247,44.866,36.466,48.553,25.608,100.794,38.31,154.878,45.275,38.105,4.917,76.21,6.761,114.11,0,13.521-2.458,27.247-6.146,39.949-11.677,28.681-12.906,36.671-32.164,32.369-68.425-2.663-22.945-3.688-46.095-5.531-69.244-.205-2.254,0-4.712,0-7.99,30.115,11.882,58.182,25.608,83.38,44.251,13.726,10.038,26.837,21.101,38.105,33.803,27.247,31.139,26.018,60.231-1.229,91.165-51.626,58.182-117.183,90.141-193.188,100.794-125.788,17.823-241.536-11.063-347.247-80.308-53.675-35.237-96.696-80.717-123.944-139.718-4.917-10.448-8.809-21.511-10.653-32.779-4.098-26.428,8.604-45.275,30.525-58.387,25.608-15.365,54.084-22.535,83.176-25.813,27.043-3.278,54.494-3.278,81.536-4.917,1.844-.41,3.278,0,5.326.205h0Z"/>
  <path d="M647.871,64.688c-81.332,70.679-154.674,146.274-202.202,243.176,19.462-21.511,38.515-43.227,58.182-64.532s39.744-42.203,61.255-62.484c-2.458,7.99-5.326,15.979-7.58,24.174-17.823,61.869-19.257,124.968-16.184,188.681.819,18.438,1.844,36.876,3.278,55.109.819,10.448-3.482,18.028-13.316,20.077-17.823,3.892-36.056,8.809-54.084,9.014-66.172.41-130.089-11.472-190.115-40.359-16.594-7.99-32.164-17.823-43.636-32.983-6.146-8.194-7.99-15.979-3.278-26.428,36.466-79.898,79.488-155.288,141.972-218.182,43.841-44.046,94.443-76.824,155.698-91.575,34.827-7.99,77.439-9.834,110.013-3.688h-.003Z"/>
  <path d="M221.546,424.841c43.636,44.046,99.155,60.845,156.518,72.113,26.632,5.326,53.879,7.99,80.922,9.834,30.115,1.844,59.821-1.024,89.116-12.702.819,9.629,1.434,18.642,2.254,27.657.819,9.219-2.868,17.004-11.063,20.077-15.57,5.736-31.344,12.497-47.324,14.136-83.38,7.785-163.482-5.736-238.873-42.817-12.906-6.351-24.379-16.184-34.827-26.018s-13.111-22.535-6.556-36.466c3.687-8.399,6.556-17.004,9.834-25.813h-.001Z"/>
</svg>