<?xml version="1.0" encoding="UTF-8"?>
<svg id="Layer_1" xmlns="http://www.w3.org/2000/svg" version="1.1" viewBox="0 0 768 768">
  <!-- Generator: Adobe Illustrator 29.8.3, SVG Export Plug-In . SVG Version: 2.1.1 Build 3)  -->
  <path d="M616.554,88.458l139.67,241.916c6.498,11.456,10.781,23.694,12.724,36.359,3.552,22.833-.394,46.877-12.839,68.462l-141.859,243.214c-6.519,11.189-15.033,21.023-25.019,29.086-18.011,14.463-40.853,23.101-65.449,23.099l-281.862,1.26c-12.913-.085-25.668-2.478-37.617-7.115-21.565-8.311-40.438-23.741-52.859-45.195L11.653,437.42c-6.373-11.239-10.661-23.486-12.613-36.146-3.539-22.829.394-46.877,12.853-68.458L153.747,89.593c6.524-11.18,15.038-21.014,25.024-29.078,18.006-14.472,40.853-23.101,65.444-23.108l281.862-1.26c12.913.085,25.668,2.478,37.617,7.115,21.565,8.311,40.438,23.741,52.859,45.195Z"/>
</svg>