<?xml version="1.0" encoding="UTF-8"?>
<svg id="Layer_1" xmlns="http://www.w3.org/2000/svg" version="1.1" viewBox="0 0 800 800">
  <!-- Generator: Adobe Illustrator 29.8.3, SVG Export Plug-In . SVG Version: 2.1.1 Build 3)  -->
  <path d="M48,200l36.334-17.774,91.666,52.774v-67.5l28.508-18.467,33.005,18.954.651,102.853,61.836,34.159v-71l65,34v-68.5l-87.013-49.987-1.064-36.044.724-1.565,29.678-16.722,58.675,32.818V23.5L400.349,1.21l33.651,22.29v104.5l60.661-33.834,30.826,20.847-.418,32.557-90.069,51.931v68.5l62-37v75l63.506-34.994.663-108.842,30.333-13.797,32.498,15.133v68.5l93.748-50.858,34.252,19.858v39l-91.992,52.019,56.781,33.184-.283,37.803-29.564,16.576-88.603-52.416-61.334,39.34,58.993,37.483-60.99,35,62.919,32.548,88.753-49.376,29.156,20.506-.341,35.328-55.486,31.993,88.508,51.998.321,41.856-37.911,16.686-86.925-49.527v65.5l-31.498,17.424-29.996-16.93-.664-99.336-64.843-36.657v68l-62-37v68.5l87.494,50.506c.943,1.566,1.01,32.719.564,36.551-.215,1.848-.103,2.132-1.661,3.339-1.965,1.523-27.144,14.018-28.733,13.88l-58.663-32.777v105.5l-33.571,21.53-34.429-21.03v-106l-58.485,32.956-29.528-16.444c-1.037-.762-.911-1.853-1.045-2.955-.787-6.499-.793-25.626-.005-32.119.134-1.105.034-2.175,1.071-2.929l86.991-50.009v-68.5l-64,40v-73l-60.84,35.66-.06,98.875-32.601,20.455-28.5-17.99v-67l-90.892,51.514-40.108-16.514v-42l95.98-52.5-59.493-30.488.132-39.116,34.633-17.724,86.243,50.48,59.511-35.142-61.987-36.01,58.978-37.488-58.991-33.593-2.683.319-84.828,49.915-32.331-15.812.324-38.853,57.509-33.972-92.996-49.015v-43ZM432.842,448.837l26.082-46.34-27.918-49.003-59.847-.332-28.673,47.905.255,2.606,30.471,45.105,59.632.058Z"/>
</svg>