<?xml version="1.0" encoding="UTF-8"?>
<svg id="Layer_1" xmlns="http://www.w3.org/2000/svg" version="1.1" viewBox="0 0 450 450">
  <!-- Generator: Adobe Illustrator 29.8.3, SVG Export Plug-In . SVG Version: 2.1.1 Build 3)  -->
  <path d="M316.383,368.801l-41.837-17.153,5.828-40.841-18.473,31.932c-11.876-8.16-19.387-23.091-20.5-37.34l20.983-42.587c-1.877-.439-2.379,1.047-3.502,1.988-5.049,4.228-10.301,10.525-15.491,14.509-1.003.77-1.268,1.94-3.001,1.489,1.075-5.672,1.341-11.507,2.285-17.204,1.962-11.832,6.302-23.297,7.525-35.078-19.599-24.175-40.483-47.57-63.802-68.226-4.279-3.79-9.574-8.57-14.005-11.995-1.005-.776-1.277-1.932-3.004-1.486,2.902,20.695,7.204,41.28,7.205,62.285,5.699,9.163,13.142,17.048,18.595,26.405,11.678,20.041,18.347,41.904,14.19,65.3l-31.985-20.995,24.221,38.287c.998,1.61.889,2.999.351,4.741-1.357,4.394-10.302,16.425-13.612,20.441-1.675,2.032-14.372,15.517-15.47,15.511l-15.49-29.976,5.515,38.971-29.519,27.53-3.001,1.489c1.041-21.39-10.226-40.349-17.934-59.494l19.919-44.501-26.49,27.98c-3.47.008-9.295-32.218-9.542-36.439-.216-3.691-.849-14.505,1.645-16.438l41.389-20.116-38.983,5.012c-2.251-3.208,9.299-16.987,11.978-19.512,13.715-12.924,33.162-18.598,50.872-23.622-1.128-19.736-3.028-39.598-7.326-58.9-.808-3.63-3.564-16.717-5.104-18.896-1.59-2.251-15.824-11.301-19.052-12.948-21.301-10.866-48.421-17.144-72.282-16.22-2.997-12.888-8.594-26.705,3.992-36.314,7.35-5.612,12.076-2.305,20.159.665,14.073,5.17,26.491,13.756,38.486,22.55,32.018-4.924,64.849-4.542,96.754,1.199,2.493-.242,13.415-12.829,16.499-15.516,16.391-14.285,36.711-24.754,59.009-21.481,1.929,1.829-17.255,25.665-15.985,26.995l34.316-19.789c15.744,8.035,28.562,19.621,39.656,33.289l-35.982,15.5h48.5c4.663,4.126,8.799,9.518,13.488,13.512,5.022,4.277,10.885,7.388,16.012,11.478-42.169-3.899-71.902,31.563-114.538,28.049-2.04-.168-5.577-.442-6.93-2.07l-19.544-42.961c-1.888-.202-.8,2.094-.698,3.195.855,9.231,3.223,19.124,3.751,28.259.076,1.313.886,5.104-1.527,4.531-12.428-9.444-21.123-20.823-28.686-34.32-1.735-3.095-6.001-13.989-8.051-14.949-26.884-5.022-54.648-6.595-81.774-2.711-1.658,2.253,39.898,32.091,43.469,35.016,30.495,24.983,58.233,54.478,82.533,85.467,8.048,1.407,16.415-.141,24.479.521,22.799,1.871,43.578,15.076,57.027,33.002.947.719-.533,1.608-1.189,1.805-7.202,2.162-18.572,2.97-26.492,4.509-1.305.254-4.84.116-4.826,1.658l42.244,9.02c8.842,15.523,12.954,33.415,15.747,50.985-1.187,1.111-22.821-1.816-26.454-2.036-1.603-.097-6.845-.748-7.535,1.029l35.863,13.143.125,60.865-20.973-12.517-20.765-9.731-13.257-38.748v33Z"/>
</svg>