<?xml version="1.0" encoding="UTF-8"?>
<svg id="Layer_1" xmlns="http://www.w3.org/2000/svg" version="1.1" viewBox="0 0 680 720">
  <!-- Generator: Adobe Illustrator 29.8.3, SVG Export Plug-In . SVG Version: 2.1.1 Build 3)  -->
  <path d="M221.215,220.393c55.603,0,111.238-1.289,166.764.669,20.727.732,41.163,9.025,61.723,13.991,6.479,1.566,12.897,4.88,19.351,4.933,53.726.392,107.454.164,161.162.229,5.582,0,11.278.196,16.683,1.345,11.13,2.331,17.414,10.233,12.307,20.417-6.311,12.567-13.904,25.937-24.513,34.631-42.06,34.404-91.614,53.394-144.45,63.938-19.176,3.818-39.005,4.539-57.988,9.003-9.593,2.268-20.417,7.769-26.418,15.259-14.916,18.651-14.019,48.683.114,67.777,6.642,8.976,13.969,17.691,22.261,25.101,15.848,14.166,27.173,31.236,31.236,51.622,2.132,10.709-1.126,22.718-3.118,33.901-.339,1.957-6.594,3.928-10.151,4.037-20.187.558-40.409.929-60.596.506-4.933-.114-10.009-2.943-14.721-5.19-10.293-4.961-20.161-14.329-30.568-14.835-31.971-1.542-64.157-.842-96.099,1.371-8.916.621-17.218,9.593-25.851,14.669-2.943,1.739-5.939,4.603-9.025,4.714-22.718.951-45.517,2.132-68.203,1.208-4.407-.164-11.301-8.781-12.088-14.188-2.133-14.691-4.994-30.731-1.208-44.472,4.212-15.227,7.654-32.526,25.215-41.841,27.794-14.754,40.267-39.151,37.772-70.781-1.433-18.169-11.585-30.006-27.621-37.291-43.216-19.715-86.481-39.511-130.031-58.688-7.931-3.509-11.865-7.572-11.979-16.376-.164-12.591-1.848-25.149-2.154-37.749-.506-19.877,6.365-27.173,27.009-27.369,43.918-.448,87.829-.277,131.738-.361,14.472-.032,28.968,0,43.439,0v-.164l.008-.016Z"/>
</svg>