<?xml version="1.0" encoding="UTF-8"?>
<svg id="Layer_1" xmlns="http://www.w3.org/2000/svg" version="1.1" viewBox="0 0 786 786">
  <!-- Generator: Adobe Illustrator 29.8.3, SVG Export Plug-In . SVG Version: 2.1.1 Build 3)  -->
  <path d="M375.918,699.056c15.651-20.774,34.433-38.417,57.483-50.938,17.074-9.391,35.002-16.789,52.361-25.043,13.944-6.545,15.651-19.92,14.229-32.441-7.968-74.558-26.181-147.123-47.808-218.551-4.553-15.367-13.944-29.88-23.619-42.97-16.221-21.627-41.263-21.343-57.483.284-8.822,11.952-14.229,26.465-21.058,39.84-14.798,29.311-28.173,59.476-44.962,87.933-15.083,25.611-42.686,34.149-69.72,41.832-10.814,3.13-22.196,3.699-33.295,5.407-8.822,1.423-13.659-2.561-14.513-11.098-3.699-38.702,2.846-76.834,22.481-108.991,29.311-48.377,72.566-81.103,132.041-87.363,25.896-2.846,51.508-5.123,77.403,3.699-26.181-58.337-54.069-89.071-122.081-73.704-27.034,5.976-54.923,9.676-81.672,16.789-23.619,6.261-46.101,16.221-69.435,23.904-31.872,10.244-63.459,21.343-95.616,30.164-15.651,4.269-32.441,3.415-49.8,5.123-3.699-22.196,4.838-40.409,13.09-56.914,21.912-44.677,58.053-75.127,102.73-96.469,43.824-21.058,90.494-24.757,137.448-22.766,25.327,1.138,48.946,11.383,68.866,28.457,18.212,15.651,37.563,29.88,56.061,45.531,5.691,4.837,9.676,11.383,14.513,17.359,13.375,16.789,26.749,33.864,42.686,53.784,0-54.638,14.513-99.884,45.816-141.147,33.579-44.109,80.534-58.337,130.049-57.768,93.624,1.423,144.277,43.824,173.873,126.349-40.409,5.976-80.249,15.083-120.374,17.359-57.199,3.415-108.706-15.651-154.238-50.084-15.082-11.383-25.042-9.106-34.433,7.399-16.221,29.026-18.782,61.183-19.351,93.339-.284,11.383,0,22.766,1.138,34.433,21.627-35.856,50.369-58.337,93.908-52.93,37.848,4.553,64.313,28.457,88.217,55.776-19.066,21.343-44.963,27.888-70.858,17.074-12.236-5.123-23.05-12.806-35.287-17.928-11.383-4.838-23.619-9.676-35.856-10.529-24.757-1.992-38.133,19.351-31.302,43.255,14.798,53.499,28.173,107.283,42.116,160.782,6.83,26.181,17.074,51.508,20.489,77.972,4.837,36.425,19.92,68.582,34.433,101.023,3.415,7.683,5.691,16.789,4.553,24.473-.569,4.269-9.676,9.96-15.082,10.244-21.343,1.423-42.686,1.138-64.029.854-27.319-.569-54.923-1.423-82.241-3.13-9.96-.569-19.92-3.415-29.88-5.123-1.138-.854-1.707-2.561-1.992-4.553v.002Z"/>
</svg>