<?xml version="1.0" encoding="UTF-8"?>
<svg id="Layer_1" xmlns="http://www.w3.org/2000/svg" version="1.1" viewBox="0 0 720 720">
  <!-- Generator: Adobe Illustrator 30.0.0, SVG Export Plug-In . SVG Version: 2.1.1 Build 123)  -->
  <path d="M670.7,360.1c-1.9,79.2-23.1,183.8-140.3,266.4-124.8,88-276.8,52.5-350.4,0-55.1-39.3-129.2-113.6-131.5-244.7-2.3-128.9,69.4-238.4,155.8-294.4,54.9-35.6,143-52.8,208.8-46.1,6.5.9,8.1,6.2,6.2,10.2h0c-.7,1.2-1.6,2.3-3,2.8h0c-.2,0-.2.2-.5.2s-.5,0-.7.2c-.5,0-.9.2-1.4.2h-.7c-6-.7-111.1-.9-203.9,74.1-72.7,58.6-106.2,156.5-103.5,228.5v.5c.2,2.8.2,5.6.5,8.3.5,6,1.2,12.5,2.1,19v.9c.5,3,.9,6,1.4,9,.2,1.6.5,3,.9,4.6.2,1.9.7,3.7,1.2,5.6,0,.5.2.9.2,1.4.5,1.9.7,3.7,1.2,5.6s.7,3.5,1.2,5.1c.5,1.9.9,3.5,1.4,5.3s.9,3.7,1.6,5.6c.5,1.6.9,3.2,1.6,4.9.2.7.5,1.6.7,2.3s.5,1.6.9,2.5c.7,2.1,1.4,4.2,2.1,6.2.9,2.8,2.1,5.6,3.2,8.1,1.9,4.9,4.2,9.7,6.5,14.4h0c4.2,8.3,9,16.7,14.4,25,2.3,3.5,4.9,6.9,7.4,10.4,2.8,3.5,5.6,6.9,8.3,10.4,3,3.5,6,6.7,9.3,10,20.6,21.1,47.7,40,83.3,55.6,119.7,52.1,284.2-26.9,301.6-175.2,2.3-19,2.1-36.1-.2-51.4-.2-1.2-.2-2.3-.5-3.5-.2-1.6-.5-3.2-.9-4.6-.2-1.4-.5-2.8-.9-4.2-.5-1.9-.9-3.5-1.2-5.3-.2-.9-.5-2.1-.9-3-.7-2.8-1.6-5.3-2.5-7.9-.5-1.4-.9-2.5-1.4-3.7-27.3-70.6-103.7-88.9-141.9-83.8-44.2,5.1-86.1,26.9-105.3,69.7-.9,1.9-1.6,3.7-2.3,5.6-1.2,2.8-2.1,5.8-3,8.8-.7,2.1-1.2,4.2-1.6,6.2-1.2,4.4-1.9,9.3-2.5,14.1,0,.7-.2,1.4-.2,2.3-.2,2.1-.5,4.2-.7,6.2,0,1.4-.2,2.8-.2,4.2v.2c0,2.3-.2,4.9-.2,7.4.5,5.6,1.4,10.9,2.8,16,.2.7.2,1.2.5,1.9.9,2.8,1.9,5.3,3,8.1.5.9.7,1.6,1.2,2.5v.2c.5.7.7,1.4,1.2,2.3.5.7.9,1.6,1.4,2.3s.9,1.6,1.4,2.3h0c.5.7.7,1.2,1.2,1.9,4.4,6.5,9.7,11.8,15.7,15.7.5.2.7.5,1.2.7,1.2.7,2.3,1.4,3.7,1.9.5.2.9.5,1.4.7.2,0,.5.2.7.2.5.2.9.5,1.2.5.7.2,1.2.5,1.9.7s1.4.5,2.3.7c.7.2,1.4.2,2.3.5.5,0,.9.2,1.4.2h.5c.7,0,1.2.2,1.9.2h.2c.5,0,1.2,0,1.6.2,4.2.2,8.6-.2,13.2-1.4,1.4-.5,3-.9,4.4-1.4.7-.2,1.6-.5,2.3-.9h0c-.9-.7-10.9-8.8-16.7-21.5-.2-.2-.2-.5-.5-.9-.9-2.1-1.6-4.6-2.3-6.9-3.5-12.3-4.4-28.9,1.6-50.5,9.5-34.7,50.9-70.4,106.5-55.1,72.4,19.9,98.8,119.4,31.2,209.7,0,0-83.8,111.3-225.2,48.1,0,0-91.9-41.9-106.7-146.3-17.6-124.5,68.3-210.9,68.3-210.9,0,0,91-112.5,244.7-78.5,158.3,34.3,213.6,172.4,211.6,256.5h0Z"/>
</svg>