<?xml version="1.0" encoding="UTF-8"?>
<svg id="Layer_1" xmlns="http://www.w3.org/2000/svg" version="1.1" viewBox="0 0 400 400">
  <!-- Generator: Adobe Illustrator 29.8.3, SVG Export Plug-In . SVG Version: 2.1.1 Build 3)  -->
  <path d="M174.439,32.996l-44.243,13.242c-30.909,12.755-65.743,30.645-79.743,62.747,38.925-40.452,98.498-58.462,153.5-62.989,44.074-3.628,153.253,5.351,167.036,58.943,17.032,66.222-90.547,94.012-137.056,99.037-14.506,1.567-31.463,2.604-46.001,2.009-1.214-.05-3.718.756-3.485-.99,54.659-6.185,119.245-20.111,154.954-65.552,1.188-1.511,8.864-11.538,8.032-12.458-31.954,30.82-76.451,48.019-119.782,55.708-51.362,9.113-122.806,7.786-168.516-19.9-45.934-27.822-39.823-67.762,2.392-95.224,32.15-20.914,75.135-30.578,112.911-34.574ZM89.454,117.985c44.763-33.224,105.645-37.558,159.199-28.709,24.757,4.091,50.87,11.571,72.297,24.686,8.769-16.672-4.683-29.999-18.486-37.498-47.213-25.652-153.565-16.745-195.937,17.105-7.563,6.042-15.336,14.64-17.074,24.416ZM187.238,99.279c-29.166,1.724-63.709,9.819-87.112,27.888-2.387,1.843-7.826,4.304-6.211,7.799,2.112,4.568,19.939,17.037,24.767,15.842,51.299-32.118,120.248-32.13,176.112-12.087l18.63-13.237c-36.456-20.881-84.439-28.673-126.187-26.206ZM276.442,147.973c-2.677-2.791-9.021-3.628-12.988-4.497-33.369-7.307-97.277-6.876-126.72,12.268-.969.63-1.787-.112-1.292,2.236,46.721,9.592,96.156,6.083,141.001-10.006Z"/>
  <path d="M330.443,197.995c-24.888,26.279-57.131,47.747-91.228,60.261-48.774,17.902-111.444,20.611-147.774-22.769-.941-1.124-2.427-1.625-1.988-3.502,37.06,19.121,79.442,17.873,119.196,8.706l11.789-3.696-36.482-1.023c-39.226-3.76-77.204-17.256-106.513-43.977,18.493,7.989,37.27,14.965,56.988,19.501,45.061,10.367,94.615,12.443,140.196,4.174,19.352-3.511,38.001-9.537,55.815-17.675Z"/>
  <path d="M248.443,266.995c-14.159,16.395-34.34,28.076-55.005,34.484-27.297,8.465-67.736,10.57-83.799-18.19-.513-.919-5.582-9.423-1.727-8.28,4.395,1.302,9.767,4.841,14.573,6.434,42.405,14.065,86.542,3.098,125.958-14.449Z"/>
  <path d="M185.444,349.996l-13.136,30.855-29.16.154c-11.752-16.677-21.822-35.036-26.694-55.019,19.207,16.612,42.644,29.28,68.99,24.01Z"/>
  <path d="M125.444,314.996c25.761,9.075,53.695,6.559,78.99-3.01-10.945,40.31-57.748,26.042-78.99,3.01Z"/>
</svg>